<svg id="visual" viewBox="0 0 900 900" width="900" height="900" xmlns="http://www.w3.org/2000/svg" xmlns:xlink="http://www.w3.org/1999/xlink" version="1.1"><rect x="0" y="0" width="900" height="900" fill="#4a730c"></rect><path d="M0 570L129 648L257 534L386 634L514 600L643 673L771 621L900 581L900 901L771 901L643 901L514 901L386 901L257 901L129 901L0 901Z" fill="#609511"></path><path d="M0 660L129 605L257 664L386 681L514 686L643 663L771 712L900 664L900 901L771 901L643 901L514 901L386 901L257 901L129 901L0 901Z" fill="#69a213"></path><path d="M0 727L129 678L257 713L386 696L514 707L643 666L771 728L900 722L900 901L771 901L643 901L514 901L386 901L257 901L129 901L0 901Z" fill="#72b014"></path><path d="M0 749L129 745L257 790L386 762L514 734L643 804L771 807L900 731L900 901L771 901L643 901L514 901L386 901L257 901L129 901L0 901Z" fill="#7bbe15"></path><path d="M0 847L129 819L257 791L386 858L514 859L643 858L771 810L900 813L900 901L771 901L643 901L514 901L386 901L257 901L129 901L0 901Z" fill="#84cc16"></path></svg>