<svg id="visual" viewBox="0 0 900 900" width="900" height="900" xmlns="http://www.w3.org/2000/svg" xmlns:xlink="http://www.w3.org/1999/xlink" version="1.1"><rect x="0" y="0" width="900" height="900" fill="#50aeca"></rect><defs><linearGradient id="grad1_0" x1="0%" y1="0%" x2="100%" y2="100%"><stop offset="30%" stop-color="#50aeca" stop-opacity="1"></stop><stop offset="70%" stop-color="#50aeca" stop-opacity="1"></stop></linearGradient></defs><defs><linearGradient id="grad2_0" x1="0%" y1="0%" x2="100%" y2="100%"><stop offset="30%" stop-color="#50aeca" stop-opacity="1"></stop><stop offset="70%" stop-color="#50aeca" stop-opacity="1"></stop></linearGradient></defs><g transform="translate(900, 0)"><path d="M0 604.6C-28.7 601.5 -57.5 598.4 -85 590.9C-112.5 583.4 -138.7 571.5 -164.5 560.3C-190.3 549.2 -215.6 538.8 -241.8 529.4C-267.9 520 -294.8 511.7 -322.2 501.4C-349.6 491 -377.5 478.6 -395.9 456.9C-414.3 435.2 -423.3 404.1 -438.3 379.8C-453.4 355.5 -474.4 337.9 -494.7 317.9C-514.9 297.9 -534.2 275.5 -547.6 250.1C-561 224.6 -568.3 196.1 -570.9 167.6C-573.5 139.2 -571.3 110.8 -576.1 82.8C-580.9 54.9 -592.7 27.4 -604.6 0L0 0Z" fill="#8dcee3"></path></g><g transform="translate(0, 900)"><path d="M0 -604.6C27.7 -595.1 55.4 -585.6 83.7 -582C112 -578.4 140.8 -580.7 169.3 -576.7C197.8 -572.6 226 -562.1 248.4 -544C270.9 -525.9 287.7 -500.2 312.5 -486.2C337.3 -472.3 370.2 -470.2 395.9 -456.9C421.6 -443.6 440.1 -419.1 452.7 -392.3C465.3 -365.4 472.1 -336.1 482.9 -310.3C493.6 -284.6 508.3 -262.4 523.9 -239.3C539.6 -216.2 556.4 -192.1 565.1 -165.9C573.9 -139.8 574.8 -111.4 580 -83.4C585.3 -55.4 594.9 -27.7 604.6 0L0 0Z" fill="#8dcee3"></path></g></svg>