<svg id="visual" viewBox="0 0 900 900" width="900" height="900" xmlns="http://www.w3.org/2000/svg" xmlns:xlink="http://www.w3.org/1999/xlink" version="1.1"><rect x="0" y="0" width="900" height="900" fill="#c8b9f1"></rect><path d="M0 526L129 569L257 544L386 570L514 648L643 533L771 649L900 634L900 901L771 901L643 901L514 901L386 901L257 901L129 901L0 901Z" fill="#ffd7b7"></path><path d="M0 704L129 642L257 605L386 645L514 704L643 608L771 712L900 655L900 901L771 901L643 901L514 901L386 901L257 901L129 901L0 901Z" fill="#e3b89e"></path><path d="M0 678L129 700L257 690L386 724L514 706L643 743L771 700L900 685L900 901L771 901L643 901L514 901L386 901L257 901L129 901L0 901Z" fill="#c69a87"></path><path d="M0 751L129 768L257 796L386 808L514 782L643 804L771 748L900 794L900 901L771 901L643 901L514 901L386 901L257 901L129 901L0 901Z" fill="#a97d71"></path><path d="M0 849L129 789L257 835L386 838L514 861L643 824L771 846L900 861L900 901L771 901L643 901L514 901L386 901L257 901L129 901L0 901Z" fill="#8d625b"></path></svg>