<?xml version="1.0" standalone="no"?>
<svg xmlns:xlink="http://www.w3.org/1999/xlink" id="wave" style="transform:rotate(0deg); transition: 0.3s" viewBox="0 0 1440 490" version="1.1" xmlns="http://www.w3.org/2000/svg"><defs><linearGradient id="sw-gradient-0" x1="0" x2="0" y1="1" y2="0"><stop stop-color="rgba(5.586, 93.668, 42.945, 1)" offset="0%"/><stop stop-color="rgba(12.054, 157.418, 108.177, 1)" offset="100%"/></linearGradient></defs><path style="transform:translate(0, 0px); opacity:1" fill="url(#sw-gradient-0)" d="M0,441L26.7,416.5C53.3,392,107,343,160,326.7C213.3,310,267,327,320,351.2C373.3,376,427,408,480,367.5C533.3,327,587,212,640,196C693.3,180,747,261,800,277.7C853.3,294,907,245,960,228.7C1013.3,212,1067,229,1120,253.2C1173.3,278,1227,310,1280,302.2C1333.3,294,1387,245,1440,204.2C1493.3,163,1547,131,1600,114.3C1653.3,98,1707,98,1760,106.2C1813.3,114,1867,131,1920,187.8C1973.3,245,2027,343,2080,359.3C2133.3,376,2187,310,2240,253.2C2293.3,196,2347,147,2400,114.3C2453.3,82,2507,65,2560,122.5C2613.3,180,2667,310,2720,326.7C2773.3,343,2827,245,2880,179.7C2933.3,114,2987,82,3040,81.7C3093.3,82,3147,114,3200,106.2C3253.3,98,3307,49,3360,49C3413.3,49,3467,98,3520,130.7C3573.3,163,3627,180,3680,212.3C3733.3,245,3787,294,3813,318.5L3840,343L3840,490L3813.3,490C3786.7,490,3733,490,3680,490C3626.7,490,3573,490,3520,490C3466.7,490,3413,490,3360,490C3306.7,490,3253,490,3200,490C3146.7,490,3093,490,3040,490C2986.7,490,2933,490,2880,490C2826.7,490,2773,490,2720,490C2666.7,490,2613,490,2560,490C2506.7,490,2453,490,2400,490C2346.7,490,2293,490,2240,490C2186.7,490,2133,490,2080,490C2026.7,490,1973,490,1920,490C1866.7,490,1813,490,1760,490C1706.7,490,1653,490,1600,490C1546.7,490,1493,490,1440,490C1386.7,490,1333,490,1280,490C1226.7,490,1173,490,1120,490C1066.7,490,1013,490,960,490C906.7,490,853,490,800,490C746.7,490,693,490,640,490C586.7,490,533,490,480,490C426.7,490,373,490,320,490C266.7,490,213,490,160,490C106.7,490,53,490,27,490L0,490Z"/><defs><linearGradient id="sw-gradient-1" x1="0" x2="0" y1="1" y2="0"><stop stop-color="rgba(10, 77, 82, 1)" offset="0%"/><stop stop-color="rgba(15.157, 143.302, 152.865, 1)" offset="100%"/></linearGradient></defs><path style="transform:translate(0, 50px); opacity:0.9" fill="url(#sw-gradient-1)" d="M0,196L26.7,179.7C53.3,163,107,131,160,155.2C213.3,180,267,261,320,285.8C373.3,310,427,278,480,285.8C533.3,294,587,343,640,359.3C693.3,376,747,359,800,302.2C853.3,245,907,147,960,138.8C1013.3,131,1067,212,1120,228.7C1173.3,245,1227,196,1280,220.5C1333.3,245,1387,343,1440,351.2C1493.3,359,1547,278,1600,245C1653.3,212,1707,229,1760,212.3C1813.3,196,1867,147,1920,130.7C1973.3,114,2027,131,2080,114.3C2133.3,98,2187,49,2240,57.2C2293.3,65,2347,131,2400,196C2453.3,261,2507,327,2560,310.3C2613.3,294,2667,196,2720,155.2C2773.3,114,2827,131,2880,138.8C2933.3,147,2987,147,3040,122.5C3093.3,98,3147,49,3200,32.7C3253.3,16,3307,33,3360,65.3C3413.3,98,3467,147,3520,138.8C3573.3,131,3627,65,3680,49C3733.3,33,3787,65,3813,81.7L3840,98L3840,490L3813.3,490C3786.7,490,3733,490,3680,490C3626.7,490,3573,490,3520,490C3466.7,490,3413,490,3360,490C3306.7,490,3253,490,3200,490C3146.7,490,3093,490,3040,490C2986.7,490,2933,490,2880,490C2826.7,490,2773,490,2720,490C2666.7,490,2613,490,2560,490C2506.7,490,2453,490,2400,490C2346.7,490,2293,490,2240,490C2186.7,490,2133,490,2080,490C2026.7,490,1973,490,1920,490C1866.7,490,1813,490,1760,490C1706.7,490,1653,490,1600,490C1546.7,490,1493,490,1440,490C1386.7,490,1333,490,1280,490C1226.7,490,1173,490,1120,490C1066.7,490,1013,490,960,490C906.7,490,853,490,800,490C746.7,490,693,490,640,490C586.7,490,533,490,480,490C426.7,490,373,490,320,490C266.7,490,213,490,160,490C106.7,490,53,490,27,490L0,490Z"/></svg>