<svg id="visual" viewBox="0 0 200 200" width="200" height="200" xmlns="http://www.w3.org/2000/svg" xmlns:xlink="http://www.w3.org/1999/xlink" version="1.1"><rect x="0" y="0" width="200" height="200" fill="#a9daff"></rect><defs><linearGradient id="grad1_0" x1="0%" y1="100%" x2="100%" y2="0%"><stop offset="30%" stop-color="#a9daff" stop-opacity="1"></stop><stop offset="70%" stop-color="#a9daff" stop-opacity="1"></stop></linearGradient></defs><defs><linearGradient id="grad2_0" x1="0%" y1="100%" x2="100%" y2="0%"><stop offset="30%" stop-color="#a9daff" stop-opacity="1"></stop><stop offset="70%" stop-color="#a9daff" stop-opacity="1"></stop></linearGradient></defs><g transform="translate(200, 200)"><path d="M-115 0C-109.9 -6.8 -104.9 -13.6 -103 -20.5C-101.1 -27.4 -102.4 -34.4 -104.4 -43.2C-106.4 -52.1 -108.9 -62.9 -105.8 -70.7C-102.7 -78.5 -93.9 -83.2 -84.9 -84.9C-75.8 -86.5 -66.4 -85.1 -60.6 -90.6C-54.7 -96.2 -52.4 -108.8 -45.9 -110.9C-39.4 -113 -28.6 -104.6 -20.3 -102C-11.9 -99.4 -6 -102.7 0 -106L0 0Z" fill="#dcffa5"></path></g><g transform="translate(0, 0)"><path d="M116 0C109.9 6 103.8 12 105.9 21.1C108 30.2 118.3 42.3 113.6 47.1C109 51.8 89.5 49.1 85.6 57.2C81.7 65.3 93.4 84.3 90 90C86.6 95.7 68.2 88.1 57.2 85.6C46.3 83.2 42.8 85.7 38.7 93.3C34.5 100.9 29.6 113.5 23 115.7C16.5 118 8.2 110 0 102L0 0Z" fill="#dcffa5"></path></g></svg>