<?xml version="1.0" standalone="no"?>
<svg xmlns:xlink="http://www.w3.org/1999/xlink" id="wave" style="transform:rotate(0deg); transition: 0.3s" viewBox="0 0 1440 420" version="1.1" xmlns="http://www.w3.org/2000/svg"><defs><linearGradient id="sw-gradient-0" x1="0" x2="0" y1="1" y2="0"><stop stop-color="rgba(61.887, 221.168, 101.707, 1)" offset="0%"/><stop stop-color="rgba(173.211, 227.999, 186.908, 1)" offset="100%"/></linearGradient></defs><path style="transform:translate(0, 0px); opacity:1" fill="url(#sw-gradient-0)" d="M0,168L21.8,140C43.6,112,87,56,131,91C174.5,126,218,252,262,294C305.5,336,349,294,393,294C436.4,294,480,336,524,336C567.3,336,611,294,655,238C698.2,182,742,112,785,112C829.1,112,873,182,916,189C960,196,1004,140,1047,105C1090.9,70,1135,56,1178,56C1221.8,56,1265,70,1309,70C1352.7,70,1396,56,1440,84C1483.6,112,1527,182,1571,203C1614.5,224,1658,196,1702,175C1745.5,154,1789,140,1833,161C1876.4,182,1920,238,1964,217C2007.3,196,2051,98,2095,49C2138.2,0,2182,0,2225,35C2269.1,70,2313,140,2356,154C2400,168,2444,126,2487,126C2530.9,126,2575,168,2618,168C2661.8,168,2705,126,2749,91C2792.7,56,2836,28,2880,35C2923.6,42,2967,84,3011,98C3054.5,112,3098,98,3120,91L3141.8,84L3141.8,420L3120,420C3098.2,420,3055,420,3011,420C2967.3,420,2924,420,2880,420C2836.4,420,2793,420,2749,420C2705.5,420,2662,420,2618,420C2574.5,420,2531,420,2487,420C2443.6,420,2400,420,2356,420C2312.7,420,2269,420,2225,420C2181.8,420,2138,420,2095,420C2050.9,420,2007,420,1964,420C1920,420,1876,420,1833,420C1789.1,420,1745,420,1702,420C1658.2,420,1615,420,1571,420C1527.3,420,1484,420,1440,420C1396.4,420,1353,420,1309,420C1265.5,420,1222,420,1178,420C1134.5,420,1091,420,1047,420C1003.6,420,960,420,916,420C872.7,420,829,420,785,420C741.8,420,698,420,655,420C610.9,420,567,420,524,420C480,420,436,420,393,420C349.1,420,305,420,262,420C218.2,420,175,420,131,420C87.3,420,44,420,22,420L0,420Z"/><defs><linearGradient id="sw-gradient-1" x1="0" x2="0" y1="1" y2="0"><stop stop-color="rgba(42.636, 142.359, 173.356, 1)" offset="0%"/><stop stop-color="rgba(134.065, 248.49, 236.862, 1)" offset="100%"/></linearGradient></defs><path style="transform:translate(0, 50px); opacity:0.9" fill="url(#sw-gradient-1)" d="M0,294L21.8,301C43.6,308,87,322,131,273C174.5,224,218,112,262,119C305.5,126,349,252,393,294C436.4,336,480,294,524,273C567.3,252,611,252,655,238C698.2,224,742,196,785,175C829.1,154,873,140,916,168C960,196,1004,266,1047,273C1090.9,280,1135,224,1178,168C1221.8,112,1265,56,1309,56C1352.7,56,1396,112,1440,168C1483.6,224,1527,280,1571,266C1614.5,252,1658,168,1702,119C1745.5,70,1789,56,1833,63C1876.4,70,1920,98,1964,91C2007.3,84,2051,42,2095,49C2138.2,56,2182,112,2225,112C2269.1,112,2313,56,2356,77C2400,98,2444,196,2487,224C2530.9,252,2575,210,2618,203C2661.8,196,2705,224,2749,238C2792.7,252,2836,252,2880,259C2923.6,266,2967,280,3011,280C3054.5,280,3098,266,3120,259L3141.8,252L3141.8,420L3120,420C3098.2,420,3055,420,3011,420C2967.3,420,2924,420,2880,420C2836.4,420,2793,420,2749,420C2705.5,420,2662,420,2618,420C2574.5,420,2531,420,2487,420C2443.6,420,2400,420,2356,420C2312.7,420,2269,420,2225,420C2181.8,420,2138,420,2095,420C2050.9,420,2007,420,1964,420C1920,420,1876,420,1833,420C1789.1,420,1745,420,1702,420C1658.2,420,1615,420,1571,420C1527.3,420,1484,420,1440,420C1396.4,420,1353,420,1309,420C1265.5,420,1222,420,1178,420C1134.5,420,1091,420,1047,420C1003.6,420,960,420,916,420C872.7,420,829,420,785,420C741.8,420,698,420,655,420C610.9,420,567,420,524,420C480,420,436,420,393,420C349.1,420,305,420,262,420C218.2,420,175,420,131,420C87.3,420,44,420,22,420L0,420Z"/></svg>